<svg width="95" height="26" viewBox="0 0 95 26" fill="none" xmlns="http://www.w3.org/2000/svg">
<path d="M6.272 19.416C5.816 19.416 5.264 19.272 4.616 18.984C3.968 18.672 3.32 18.288 2.672 17.832C2.024 17.352 1.46 16.872 0.98 16.392C0.5 15.888 0.2 15.444 0.08 15.06C0.968 14.748 1.844 14.292 2.708 13.692C3.572 13.092 4.376 12.42 5.12 11.676C5.888 10.908 6.548 10.14 7.1 9.372C7.22 9.468 7.328 9.636 7.424 9.876C7.544 10.116 7.604 10.38 7.604 10.668C7.604 11.148 7.424 11.628 7.064 12.108C6.704 12.564 6.236 13.008 5.66 13.44C5.084 13.872 4.46 14.28 3.788 14.664C3.14 15.048 2.504 15.396 1.88 15.708C2.36 16.02 2.828 16.308 3.284 16.572C3.764 16.836 4.352 17.124 5.048 17.436C5.744 17.724 6.656 18.072 7.784 18.48C7.592 18.696 7.364 18.912 7.1 19.128C6.836 19.32 6.56 19.416 6.272 19.416ZM13.9005 23.436C13.3405 23.1373 12.9858 22.8293 12.8365 22.512C12.6872 22.1947 12.6125 21.924 12.6125 21.7C12.6125 21.196 12.7898 20.524 13.1445 19.684C13.5178 18.8253 14.0125 17.8453 14.6285 16.744C15.2445 15.6427 15.9445 14.4947 16.7285 13.3C16.1498 13.2627 15.5992 13.2347 15.0765 13.216C14.5538 13.1973 13.8818 13.188 13.0605 13.188H12.6125C12.8738 12.516 13.2845 12.0493 13.8445 11.788C14.4232 11.508 15.0952 11.368 15.8605 11.368C16.1778 11.368 16.5045 11.3867 16.8405 11.424C17.1952 11.4613 17.5592 11.4987 17.9325 11.536C18.8658 10.192 19.7805 8.92267 20.6765 7.728C21.5912 6.53333 22.4498 5.46 23.2525 4.508C24.0738 3.53733 24.8018 2.744 25.4365 2.128C26.3325 1.232 26.9858 0.783998 27.3965 0.783998C27.6578 0.783998 27.9472 0.886665 28.2645 1.092C28.6005 1.29733 28.9458 1.55867 29.3005 1.876C29.1138 2.02533 28.8712 2.408 28.5725 3.024C28.2925 3.64 27.9845 4.424 27.6485 5.376C27.3312 6.30933 27.0045 7.336 26.6685 8.456C26.3512 9.576 26.0618 10.7147 25.8005 11.872C25.5392 13.0293 25.3245 14.14 25.1565 15.204C25.0072 16.2493 24.9325 17.1733 24.9325 17.976C24.9325 18.7227 25.0072 19.2827 25.1565 19.656C25.3058 20.0107 25.5578 20.188 25.9125 20.188C26.3418 20.188 26.8738 19.8613 27.5085 19.208C28.1432 18.5547 28.8525 17.4907 29.6365 16.016L30.1405 16.548C29.5618 18.0787 28.8058 19.3387 27.8725 20.328C26.9578 21.3173 25.9778 21.812 24.9325 21.812C24.0365 21.812 23.4018 21.4293 23.0285 20.664C22.6552 19.88 22.4685 18.816 22.4685 17.472C22.4685 17.0427 22.4965 16.5573 22.5525 16.016C22.6085 15.4747 22.7018 14.8027 22.8325 14C22.0112 13.8693 21.2832 13.7667 20.6485 13.692C20.0138 13.6173 19.4072 13.5427 18.8285 13.468C17.9325 15.0547 17.0645 16.6973 16.2245 18.396C15.3845 20.0947 14.6098 21.7747 13.9005 23.436ZM23.1125 12.628C23.3552 11.5267 23.6352 10.416 23.9525 9.296C24.2885 8.15733 24.6338 7.07467 24.9885 6.048C25.3618 5.00267 25.7258 4.06933 26.0805 3.248C25.5205 3.696 24.8952 4.34 24.2045 5.18C23.5138 6.02 22.7858 7.00933 22.0205 8.148C21.2738 9.28667 20.5085 10.528 19.7245 11.872C20.2845 11.984 20.8445 12.1053 21.4045 12.236C21.9645 12.3667 22.5338 12.4973 23.1125 12.628ZM32.6627 21.84C31.7854 21.84 31.1694 21.5507 30.8147 20.972C30.4787 20.3747 30.3107 19.6747 30.3107 18.872C30.3107 17.9573 30.4787 16.884 30.8147 15.652C31.1507 14.42 31.5894 13.132 32.1307 11.788C32.6907 10.4253 33.2974 9.1 33.9507 7.812C34.6227 6.50533 35.2947 5.32933 35.9667 4.284C36.6387 3.23867 37.2547 2.408 37.8147 1.792C38.3934 1.15733 38.86 0.839999 39.2147 0.839999C39.4574 0.839999 39.6627 0.970666 39.8307 1.232C39.9987 1.47467 40.1294 1.77333 40.2227 2.128C40.3347 2.464 40.3907 2.78133 40.3907 3.08C40.3907 3.584 40.26 4.24667 39.9987 5.068C39.756 5.87067 39.4014 6.75733 38.9347 7.728C38.4867 8.69867 37.9454 9.69733 37.3107 10.724C36.6947 11.732 36.004 12.6933 35.2387 13.608C34.492 14.5227 33.6894 15.316 32.8307 15.988C32.756 16.4547 32.6814 16.9213 32.6067 17.388C32.5507 17.836 32.5227 18.2467 32.5227 18.62C32.5227 19.292 32.6347 19.7867 32.8587 20.104C33.0827 20.4027 33.372 20.552 33.7267 20.552C34.1934 20.552 34.6694 20.3373 35.1547 19.908C35.6587 19.46 36.1347 18.9 36.5827 18.228C37.0494 17.5373 37.4507 16.828 37.7867 16.1L38.4587 16.464C37.656 18.1253 36.76 19.4413 35.7707 20.412C34.7814 21.364 33.7454 21.84 32.6627 21.84ZM33.3347 14.252C33.9694 13.5613 34.5667 12.8147 35.1267 12.012C35.7054 11.1907 36.228 10.36 36.6947 9.52C37.18 8.68 37.6 7.868 37.9547 7.084C38.3094 6.3 38.58 5.6 38.7667 4.984C38.972 4.34933 39.084 3.84533 39.1027 3.472C39.1027 3.45333 39.1027 3.444 39.1027 3.444C39.1027 3.42533 39.1027 3.40667 39.1027 3.388C38.9534 3.388 38.7107 3.60267 38.3747 4.032C38.0574 4.44267 37.6747 5.012 37.2267 5.74C36.7787 6.468 36.312 7.29867 35.8267 8.232C35.36 9.16533 34.9027 10.1547 34.4547 11.2C34.0254 12.2267 33.652 13.244 33.3347 14.252ZM41.766 22.232C40.5713 22.232 39.6473 21.9053 38.994 21.252C38.3593 20.6173 38.042 19.8147 38.042 18.844C38.042 18.0227 38.2473 17.1547 38.658 16.24C39.0873 15.3067 39.6566 14.4387 40.366 13.636C41.0753 12.8147 41.8593 12.152 42.718 11.648C43.5766 11.144 44.4353 10.892 45.294 10.892C45.7793 10.892 46.2366 11.0227 46.666 11.284C47.114 11.5267 47.338 12.0213 47.338 12.768C47.338 13.4773 47.1326 14.14 46.722 14.756C46.3113 15.372 45.7606 15.9227 45.07 16.408C44.3793 16.8933 43.614 17.2947 42.774 17.612C41.9526 17.9107 41.122 18.1067 40.282 18.2C40.2633 18.2747 40.2446 18.3587 40.226 18.452C40.226 18.5267 40.226 18.6573 40.226 18.844C40.226 18.9373 40.2353 19.1053 40.254 19.348C40.2913 19.572 40.3753 19.8147 40.506 20.076C40.6366 20.3373 40.8513 20.5613 41.15 20.748C41.4486 20.9347 41.8593 21.028 42.382 21.028C43.166 21.028 43.95 20.8133 44.734 20.384C45.5366 19.936 46.2833 19.348 46.974 18.62C47.6833 17.892 48.2713 17.08 48.738 16.184L49.298 16.632C48.794 17.752 48.1406 18.732 47.338 19.572C46.554 20.412 45.6766 21.0653 44.706 21.532C43.754 21.9987 42.774 22.232 41.766 22.232ZM40.59 17.164C41.0753 17.108 41.6166 16.94 42.214 16.66C42.8113 16.38 43.3806 16.0253 43.922 15.596C44.482 15.1667 44.9393 14.7 45.294 14.196C45.6486 13.6733 45.826 13.1507 45.826 12.628C45.826 12.4227 45.7886 12.2827 45.714 12.208C45.6393 12.1333 45.518 12.096 45.35 12.096C44.9206 12.096 44.4726 12.2547 44.006 12.572C43.5393 12.8707 43.082 13.272 42.634 13.776C42.186 14.2613 41.7846 14.8027 41.43 15.4C41.0753 15.9973 40.7953 16.5853 40.59 17.164ZM51.0009 22.652C50.8329 22.652 50.7023 22.5867 50.6089 22.456C50.5343 22.3253 50.4969 22.204 50.4969 22.092C50.4969 21.8307 50.6929 21.42 51.0849 20.86C51.4769 20.2813 51.9903 19.6187 52.6249 18.872C53.2596 18.1253 53.9409 17.36 54.6689 16.576C54.5383 15.6613 54.3983 14.9613 54.2489 14.476C54.0996 13.9907 53.8196 13.748 53.4089 13.748C52.9983 13.748 52.6156 13.9627 52.2609 14.392C51.9063 14.8027 51.5609 15.316 51.2249 15.932C50.8889 16.548 50.5343 17.1547 50.1609 17.752L49.6849 16.968C49.9463 16.5013 50.1889 16.0067 50.4129 15.484C50.6556 14.9427 50.9169 14.4293 51.1969 13.944C51.4956 13.4587 51.8596 13.0667 52.2889 12.768C52.7183 12.4507 53.2596 12.292 53.9129 12.292C54.6596 12.292 55.2196 12.5067 55.5929 12.936C55.9849 13.3653 56.2836 13.944 56.4889 14.672C57.3289 13.832 58.0943 13.132 58.7849 12.572C59.4756 11.9933 59.9516 11.704 60.2129 11.704C60.3249 11.704 60.4836 11.76 60.6889 11.872C60.8943 11.984 61.0436 12.1707 61.1369 12.432C60.8943 12.432 60.5396 12.6 60.0729 12.936C59.6249 13.2533 59.1023 13.692 58.5049 14.252C57.9263 14.7933 57.3289 15.4093 56.7129 16.1C56.7689 16.3613 56.8156 16.7253 56.8529 17.192C56.9089 17.6587 56.9836 18.144 57.0769 18.648C57.1703 19.1333 57.3103 19.544 57.4969 19.88C57.7023 20.216 57.9729 20.384 58.3089 20.384C58.6263 20.384 58.9716 20.244 59.3449 19.964C59.7183 19.684 60.0823 19.3293 60.4369 18.9C60.8103 18.452 61.1463 17.9947 61.4449 17.528C61.7623 17.0427 62.0143 16.604 62.2009 16.212L62.6489 16.632C62.3316 17.472 61.8929 18.284 61.3329 19.068C60.7916 19.852 60.1849 20.496 59.5129 21C58.8409 21.504 58.1503 21.756 57.4409 21.756C56.8623 21.756 56.4049 21.5787 56.0689 21.224C55.7329 20.888 55.4716 20.4587 55.2849 19.936C55.1169 19.4133 54.9863 18.872 54.8929 18.312C54.1463 19.152 53.4649 19.9453 52.8489 20.692C52.2516 21.42 51.7943 21.9893 51.4769 22.4C51.3463 22.568 51.1876 22.652 51.0009 22.652ZM71.0407 25.536C71.47 25.1253 71.9554 24.4813 72.4967 23.604C73.038 22.7267 73.6074 21.7 74.2047 20.524C74.802 19.348 75.4087 18.088 76.0247 16.744C76.6407 15.3813 77.238 14 77.8167 12.6C78.414 11.2 78.974 9.84667 79.4967 8.54C80.038 7.21467 80.5234 6.01067 80.9527 4.928C81.382 3.84533 81.7367 2.94 82.0167 2.212C82.0914 2.00667 82.278 1.80133 82.5767 1.596C82.8754 1.39067 83.23 1.22267 83.6407 1.092C84.07 0.942666 84.518 0.867999 84.9847 0.867999C84.91 1.092 84.7234 1.54933 84.4247 2.24C84.1447 2.912 83.79 3.752 83.3607 4.76C82.95 5.74933 82.4927 6.832 81.9887 8.008C81.5034 9.16533 80.9994 10.36 80.4767 11.592C79.954 12.8053 79.45 13.9813 78.9647 15.12C78.4794 16.24 78.0407 17.2573 77.6487 18.172C77.2567 19.068 76.9487 19.7867 76.7247 20.328C76.0154 21.9707 75.138 23.2493 74.0927 24.164C73.0474 25.0787 72.03 25.536 71.0407 25.536ZM88.3338 19.416C87.9978 19.416 87.6858 19.32 87.3978 19.128C87.1098 18.912 86.8938 18.696 86.7498 18.48C87.8778 18.072 88.7778 17.724 89.4498 17.436C90.1218 17.124 90.6858 16.836 91.1418 16.572C91.5978 16.308 92.0538 16.02 92.5098 15.708C91.8858 15.396 91.2258 15.048 90.5298 14.664C89.8338 14.28 89.1858 13.872 88.5858 13.44C87.9858 13.008 87.4938 12.564 87.1098 12.108C86.7258 11.628 86.5338 11.148 86.5338 10.668C86.5338 10.476 86.5698 10.284 86.6418 10.092C86.7138 9.876 86.8098 9.672 86.9298 9.48C87.4578 10.128 88.1298 10.824 88.9458 11.568C89.7618 12.288 90.6378 12.96 91.5738 13.584C92.5098 14.208 93.4218 14.688 94.3098 15.024C94.2138 15.408 93.9378 15.852 93.4818 16.356C93.0258 16.86 92.4858 17.352 91.8618 17.832C91.2378 18.288 90.6018 18.672 89.9538 18.984C89.3298 19.272 88.7898 19.416 88.3338 19.416Z" fill="#928E8E"/>
</svg>
